<?xml version="1.0" encoding="UTF-8" standalone="no"?>
<!-- Created with Inkscape (http://www.inkscape.org/) -->

<svg
   xmlns:dc="http://purl.org/dc/elements/1.1/"
   xmlns:cc="http://creativecommons.org/ns#"
   xmlns:rdf="http://www.w3.org/1999/02/22-rdf-syntax-ns#"
   xmlns:svg="http://www.w3.org/2000/svg"
   xmlns="http://www.w3.org/2000/svg"
   xmlns:sodipodi="http://sodipodi.sourceforge.net/DTD/sodipodi-0.dtd"
   xmlns:inkscape="http://www.inkscape.org/namespaces/inkscape"
   width="497mm"
   height="510mm"
   viewBox="0 0 497 510"
   version="1.1"
   id="svg5355"
   inkscape:version="0.92.2 5c3e80d, 2017-08-06"
   sodipodi:docname="Virtus.pro_Logo.svg">
  <defs
     id="defs5349" />
  <sodipodi:namedview
     id="base"
     pagecolor="#ffffff"
     bordercolor="#666666"
     borderopacity="1.0"
     inkscape:pageopacity="0.0"
     inkscape:pageshadow="2"
     inkscape:zoom="0.12374369"
     inkscape:cx="2686.2597"
     inkscape:cy="139.47208"
     inkscape:document-units="mm"
     inkscape:current-layer="layer1"
     showgrid="false"
     inkscape:pagecheckerboard="true"
     fit-margin-top="5"
     fit-margin-left="5"
     fit-margin-bottom="5"
     fit-margin-right="5"
     inkscape:window-width="1280"
     inkscape:window-height="672"
     inkscape:window-x="0"
     inkscape:window-y="1"
     inkscape:window-maximized="1" />
  <metadata
     id="metadata5352">
    <rdf:RDF>
      <cc:Work
         rdf:about="">
        <dc:format>image/svg+xml</dc:format>
        <dc:type
           rdf:resource="http://purl.org/dc/dcmitype/StillImage" />
        <dc:title />
      </cc:Work>
    </rdf:RDF>
  </metadata>
  <g
     inkscape:label="Calque 1"
     inkscape:groupmode="layer"
     id="layer1"
     transform="translate(-321.33219,299.74599)">
    <path
       style="fill:#ffffff;fill-opacity:1;stroke-width:0.20734338;enable-background:new"
       d="m 567.98613,-294.73125 c -73.58344,0.97703 -145.20342,23.07494 -211.92004,52.80153 -9.68092,4.74461 -20.84672,10.0601 -29.73389,14.85801 18.48374,31.02625 42.88119,72.24473 60.29497,101.77874 -3.95575,7.10351 -10.50793,15.64827 -6.40837,24.12045 2.31123,4.062964 3.27195,9.660609 -0.43101,13.247865 -8.80276,15.065016 -18.03571,30.681262 -20.92254,48.049226 -4.52172,15.244966 -14.55636,30.2154202 -12.27772,46.8165623 2.18244,9.7491037 7.9004,18.9768757 15.89314,24.9253967 6.02977,2.291378 12.21042,4.617168 16.63636,9.536106 13.70848,11.471141 27.89584,23.1761 44.94662,29.294137 -19.94253,4.708964 -39.89464,9.377157 -59.85274,14.020033 -0.53223,41.948814 -0.44904,85.735984 -0.77979,120.537214 61.83331,-14.07866 133.8782,-30.68331 189.88392,-43.7116 5.2723,8.95293 9.86414,18.62222 17.213,26.19194 8.5891,-10.98264 14.69326,-23.58618 21.97678,-35.41114 65.57313,-15.56241 131.2185,-30.87429 196.79877,-46.43103 0,-40.494401 0.0291,-80.471223 0.0291,-120.816436 -38.48055,8.6213565 -76.81562,17.8779852 -115.22957,26.791665 45.47639,-78.6442 93.75043,-160.318309 139.22909,-238.965309 -10.09219,-5.3858 -11.45833,-6.14752 -16.90974,-9.03043 -66.04778,-31.89385 -137.63749,-54.62087 -211.2662,-58.36733 -5.72033,-0.21366 -11.4459,-0.28436 -17.17013,-0.2356 z"
       id="path5313"
       inkscape:connector-curvature="0"
       sodipodi:nodetypes="ccccccccccccccccccccccc" />
    <path
       style="fill:#0d0802;fill-opacity:1;stroke-width:0.20734338;enable-background:new"
       d="M 370.50605,143.75853 V 89.688539 l 1.40019,-0.318564 C 388.03132,85.7012 500.49687,59.086086 500.60357,58.913569 c 0.16479,-0.266396 0.23003,-0.146173 -4.41147,-8.129539 -1.78937,-3.077673 -3.39631,-5.624512 -3.571,-5.659644 -0.17468,-0.03517 -2.26186,0.956007 -4.63816,2.202559 -18.58042,9.746801 -33.56847,15.980635 -45.60032,18.966081 -3.70109,0.918353 -3.75206,0.924776 -5.80821,0.733523 -9.10949,-0.847299 -18.67687,-4.852654 -30.5949,-12.808408 -7.96988,-5.320236 -11.5188,-8.030435 -18.93615,-14.461052 -7.55944,-6.553817 -11.30586,-9.330393 -14.87782,-11.02637 -1.77541,-0.842975 -3.78754,-1.465785 -4.76275,-1.474213 -3.90677,-0.03376 -12.7038,-12.703359 -14.75482,-21.2500969 -0.38731,-1.6138855 -0.42724,-2.2025197 -0.30859,-4.5480798 0.32985,-6.5201498 1.28731,-9.9035882 6.72545,-23.7663013 4.21497,-10.744652 5.93947,-15.953031 8.11971,-24.523151 2.63856,-10.371804 5.19022,-15.958788 14.10351,-30.880372 4.90391,-8.209578 6.58039,-11.517364 7.36751,-14.53661 0.57461,-2.204118 0.44812,-3.033886 -1.06152,-6.96413 -1.64781,-4.290015 -2.77491,-7.672835 -2.77491,-8.328535 0,-1.03029 3.76023,-8.76178 7.05664,-14.50935 1.71894,-2.99709 1.87225,-3.35139 1.65573,-3.8262 -0.13124,-0.28779 -13.11339,-22.69306 -28.84922,-49.78949 -15.73584,-27.09645 -28.6106,-49.35986 -28.6106,-49.47428 0,-0.23946 11.6173,-6.03467 18.35808,-9.15777 58.88871,-27.28412 120.72403,-45.60984 174.7648,-51.7939 15.5394,-1.77824 26.05466,-2.37872 41.69463,-2.3811 19.00356,-0.003 34.5735,1.15656 54.34823,4.04709 53.79522,7.86341 116.13871,27.92717 170.68855,54.93205 6.70634,3.31996 8.3509,4.21287 8.2744,4.49244 -0.0525,0.19192 -32.12622,55.49891 -71.27487,122.90443 -39.14864,67.405494 -71.17935,122.687064 -71.17935,122.847932 0,0.166838 0.20046,0.289966 0.46673,0.286668 0.2567,-0.0031 27.56186,-6.374759 60.67812,-14.1590622 33.11626,-7.78430292 60.25667,-14.108022 60.31201,-14.0527281 0.18398,0.1838116 0.1049,107.9820503 -0.0793,108.0957903 -0.099,0.0611 -43.84481,10.37487 -97.21301,22.9195 -53.3682,12.54462 -97.17154,22.88582 -97.34077,22.98045 -0.16921,0.0946 -4.33329,7.10319 -9.25351,15.57461 -4.92022,8.47142 -9.03919,15.40074 -9.15327,15.39853 -0.1141,-0.002 -3.0706,-4.93841 -6.57,-10.96933 -7.59538,-13.08996 -7.10994,-12.31243 -7.68725,-12.31243 -0.25243,0 -41.92577,9.74598 -92.60745,21.65772 -50.68169,11.91175 -92.29342,21.65772 -92.47048,21.65772 -0.29014,0 -0.32194,-5.3404 -0.32194,-54.06999 z"
       id="path4737"
       inkscape:connector-curvature="0"
       sodipodi:nodetypes="sccccccsscsccccsccccsccsscsssscsscsscscscsssss" />
    <path
       style="fill:#ffffff;fill-opacity:1;stroke-width:0.20734338;enable-background:new"
       d="m 440.61331,57.522567 c 0.73823,-0.128643 2.97853,-0.775798 4.97847,-1.438095 16.5917,-5.49457 37.89539,-16.393855 62.32907,-31.888485 7.87175,-4.991841 23.10016,-15.2994683 24.26344,-16.4231191 0.38863,-0.3753701 0.3729,-0.3938171 -0.76299,-0.8957153 -1.20929,-0.5343352 -3.05649,-2.0626206 -3.05649,-2.5287921 0,-0.4043291 3.44034,-3.48204151 6.14129,-5.4939506 10.80233,-8.0465944 29.74238,-15.6076459 54.53374,-21.7704579 6.54396,-1.626732 16.20718,-3.719243 22.40308,-4.851228 l 4.14873,-0.757955 2.3855,-1.359106 c 11.47997,-6.540492 19.08339,-14.687311 22.28529,-23.877938 1.49798,-4.299724 2.05975,-8.937148 1.58311,-13.068554 -0.43414,-3.76307 -2.86019,-16.35888 -6.64567,-34.503801 -0.80817,-3.87366 -1.43998,-7.18449 -1.40405,-7.3574 0.15728,-0.75688 7.53377,10.965805 11.05999,17.57649 5.49533,10.302262 8.27818,18.442313 8.70527,25.463538 0.19473,3.201217 -0.23663,12.466697 -0.74112,15.919373 -1.68333,11.520614 -6.59461,20.45296 -16.79487,30.54542 -1.42668,1.411581 -3.06756,2.971003 -3.64641,3.465373 l -1.05243,0.898849 -4.23719,0.321423 c -29.03327,2.202418 -52.9057,7.8370044 -69.89065,16.4962572 -5.22453,2.6635684 -11.20155,6.6450486 -11.20155,7.4616966 0,0.2010131 0.39166,0.5855482 0.89892,0.8825562 1.48131,0.867304 3.34643,3.039291 4.2998,5.007201 0.46854,0.967138 0.81624,1.86532 0.77266,1.995953 -0.0436,0.130625 -1.15772,0.454751 -2.47585,0.720277 -4.51311,0.909087 -10.1171,2.866611 -16.87515,5.89463 -3.86136,1.730129 -15.87711,7.79234 -16.33216,8.239939 -0.34082,0.335233 -0.32283,0.423951 0.34418,1.698483 0.3871,0.739641 0.83588,1.371796 0.99731,1.404789 0.16145,0.03298 1.15626,-0.449362 2.21072,-1.071898 8.21427,-4.849607 24.87758,-9.366621 44.48554,-12.058874 1.66779,-0.229009 2.70231,-0.464119 2.76545,-0.628528 0.0555,-0.144474 -1.87219,-3.113863 -4.28376,-6.598661 -2.41154,-3.484799 -4.32559,-6.4314089 -4.25345,-6.5480282 0.19661,-0.317836 3.51986,-1.9423981 6.35677,-3.1075017 9.78238,-4.0175124 22.77447,-6.7825509 37.5116,-7.9833656 5.48902,-0.4472467 18.25956,-0.6222461 23.85515,-0.3268754 6.57835,0.3472493 11.86884,1.2236326 15.12295,2.50512824 0.58982,0.23228284 1.24563,0.42233742 1.45732,0.42233742 0.294,0 10.7296,-17.81311076 44.17619,-75.40684076 24.0852,-41.473771 43.79127,-75.561361 43.79127,-75.750181 0,-0.18885 -0.0354,-0.34335 -0.0786,-0.34335 -0.23231,0 -34.88519,-12.46655 -35.01591,-12.59716 -0.0856,-0.0855 1.1014,-1.58444 2.63775,-3.33094 1.53636,-1.7465 2.79337,-3.2995 2.79337,-3.45107 0,-0.35068 1.4265,0.10613 -29.14475,-9.33291 -14.26121,-4.40321 -25.96134,-8.03768 -26.0003,-8.07658 -0.51815,-0.51772 4.16754,-5.25276 7.12363,-7.19866 1.1409,-0.75101 2.42441,-1.53054 2.85224,-1.7323 1.32272,-0.62377 1.04884,-1.02156 -1.03718,-1.50639 -6.23009,-1.44791 -16.80717,-3.30277 -27.31751,-4.79056 -7.09544,-1.0044 -18.80804,-2.49041 -19.62911,-2.49041 -0.54199,0 -0.6304,0.13646 -1.44353,2.22795 -8.87494,22.82798 -13.37738,39.91304 -12.76673,48.44489 l 0.13351,1.86526 -0.42004,-0.51813 c -0.23102,-0.28497 -0.70645,-1.2519 -1.05651,-2.14874 -2.17667,-5.57643 -2.35042,-14.82113 -0.48667,-25.89319 0.81404,-4.83604 1.94558,-8.9252 3.89491,-14.07543 2.32151,-6.13361 2.70518,-7.57984 2.70957,-10.21348 0.005,-3.23359 -0.9325,-5.28077 -3.63717,-7.93923 -3.45159,-3.39257 -8.25456,-5.95255 -19.87819,-10.59501 -9.06108,-3.61899 -9.74512,-3.8245 -12.77455,-3.83787 -2.34718,-0.0103 -2.55435,0.023 -3.63014,0.58308 -1.92938,1.00463 -4.88567,4.22029 -9.26633,10.07936 -7.12623,9.53121 -12.90411,18.18068 -26.97713,40.38473 -0.38718,0.61089 -0.74322,1.07151 -0.79118,1.0236 -0.048,-0.0479 0.79031,-2.73943 1.8628,-5.9811 2.88041,-8.70632 5.30106,-16.69597 5.30106,-17.49676 0,-0.38731 -0.0929,-0.76156 -0.2065,-0.8317 -0.11357,-0.0701 -1.39708,0.0718 -2.85224,0.31554 -25.82091,4.32387 -51.34058,15.04272 -70.89216,29.77631 -12.78903,9.63751 -30.75239,26.95086 -42.08397,40.56121 -3.31938,3.98689 -5.82041,7.1692 -7.91466,10.07057 -2.03584,2.82043 -5.68275,8.38655 -6.49212,9.9086 l -0.69048,1.29845 1.27829,1.97149 c 3.39606,5.23775 5.34957,10.397885 5.01625,13.250356 -0.11205,0.959015 -1.18839,2.538184 -6.59833,9.680752 -10.95955,14.469544 -17.34628,26.159111 -21.5448,39.433283 -3.93234,12.432647 -3.85397,12.209106 -9.3386,26.631736 -1.74487,4.588366 -2.59227,7.807011 -2.59227,9.8461954 0,0.8404606 0.0963,1.5876212 0.2141,1.660328 0.11774,0.072691 2.19869,-0.5235332 4.62433,-1.3249772 11.2389,-3.7133922 22.24126,-5.6730152 30.01082,-5.3452082 4.34145,0.18317 7.15497,0.90047 8.97644,2.288512 1.28094,0.976146 4.14157,4.2939819 5.66122,6.5660596 2.57441,3.84907725 3.59673,6.8882665 3.76803,11.2015099 0.12586,3.1687409 0.15419,3.1022379 -1.3766,3.2315389 -2.32407,0.1963056 -5.5176,1.4707356 -7.70444,3.0746106 -1.53532,1.126016 -3.10335,2.960553 -3.80079,4.446774 -0.5696,1.213763 -0.62818,1.527918 -0.59891,3.212387 0.07,4.033101 1.4121,8.836391 3.88021,13.887607 1.422,2.910264 4.76607,8.260712 5.67883,9.086008 0.24762,0.223893 1.12239,0.483866 2.232,0.663322 7.48167,1.210058 15.13749,0.03165 22.17826,-3.413666 5.32783,-2.607139 8.23085,-5.075389 12.32879,-10.482462 9.18454,-12.118579 22.58308,-38.3923264 31.01897,-60.826342 2.74497,-7.299849 3.533,-9.264697 5.44411,-13.573961 6.25809,-14.111108 13.57851,-25.573656 22.42161,-35.108376 6.83939,-7.37431 15.95643,-13.940699 24.22112,-17.444853 1.51693,-0.643161 2.57888,-1.210598 2.57888,-1.378015 0,-0.320554 -0.39353,-0.274629 -3.31897,0.387292 -6.15602,1.39289 -12.91823,3.915737 -20.00372,7.462934 -2.04601,1.024296 -3.5871,1.702361 -3.42467,1.506823 0.55448,-0.667514 6.46367,-5.513291 9.40007,-7.708447 8.0424,-6.012241 15.47195,-10.218491 21.47226,-12.156531 7.51613,-2.42763 12.45912,-1.656 19.53555,3.04963 6.59955,4.38852 15.20815,12.92987 23.65065,23.465919 3.05848,3.816875 5.24878,6.721907 5.14574,6.824849 -0.0485,0.04841 -1.20624,-0.896984 -2.57291,-2.100822 -5.81213,-5.119607 -14.74335,-12.085679 -15.49509,-12.085679 -0.30872,0 -0.0647,0.494417 1.16454,2.359299 1.72201,2.612504 4.11312,6.858054 6.18626,10.984047 2.47529,4.926372 13.24288,27.956627 13.12563,28.073764 -0.05,0.04997 -0.66622,-0.07042 -1.36936,-0.26754 -1.50369,-0.421531 -8.05922,-1.137562 -10.48288,-1.14498 -3.61972,-0.01097 -8.82191,0.745915 -13.45347,1.957735 -13.071,3.419909 -27.22168,11.190591 -40.3463,22.155674 -3.90349,3.261195 -11.40118,10.632075 -15.65063,15.38593 -3.20063,3.5805507 -5.14254,5.8746316 -14.52633,17.1608095 -6.83987,8.2265135 -10.80936,12.5723975 -16.25231,17.7933565 -8.24704,7.910698 -17.74099,14.343665 -28.1923,19.102722 -10.95349,4.98772 -19.69314,7.693587 -26.25148,8.127674 -1.11639,0.07387 -2.08135,0.217635 -2.1443,0.319419 -0.063,0.101775 0.71839,1.007713 1.73632,2.013193 2.02372,1.998954 3.01238,2.521555 5.49257,2.903309 1.64984,0.253972 9.7865,0.121718 11.56337,-0.187932 z M 421.8695,-51.183391 c 0.27853,-1.206799 2.20075,-6.67389 3.53415,-10.051665 1.60946,-4.077075 5.08399,-11.268099 6.90959,-14.300309 2.89755,-4.812611 6.14648,-8.942968 8.99656,-11.437294 0.93232,-0.815951 1.76572,-1.600123 1.85197,-1.74263 0.39421,-0.651221 -3.02915,-2.587611 -6.1974,-3.505502 -3.52669,-1.021727 -5.24813,-1.235296 -9.98387,-1.238657 -2.42441,-0.0024 -4.40802,-0.02209 -4.40802,-0.0452 0,-0.269568 6.1043,-2.589765 8.09001,-3.074963 4.20323,-1.027029 9.23349,-3.092094 17.21718,-7.068139 15.46292,-7.70084 30.54663,-18.67055 46.87025,-34.08659 2.21906,-2.09572 3.97096,-3.64387 3.89307,-3.44032 -0.21793,0.56954 -5.69572,8.33129 -8.66103,12.27223 -5.72982,7.61502 -10.13257,12.32496 -14.8597,15.89648 -7.57261,5.72138 -17.22017,11.73525 -25.34099,15.796464 -2.52384,1.262179 -3.13358,1.647192 -2.95297,1.864615 0.36353,0.437636 2.72617,1.528497 4.17789,1.929012 1.99674,0.550831 6.53344,0.495349 8.9711,-0.109766 9.14727,-2.270597 14.95469,-8.026095 18.2891,-18.113805 0.50241,-1.51997 0.65825,-2.11337 0.71453,-2.47785 -0.005,1.04395 -0.65649,5.30285 -1.21674,6.94779 -2.41546,7.09217 -7.06736,12.57319 -13.46647,15.857265 -3.34716,1.717776 -12.66689,5.055391 -14.90701,5.338511 -1.27024,0.160563 -1.55882,0.346944 -4.34087,2.803898 -5.05186,4.461509 -10.4672,10.763773 -14.75196,17.168016 -2.5375,3.792687 -3.80543,5.989528 -6.22,10.777042 -1.29353,2.56473 -2.2873,4.383358 -2.20837,4.041388 z M 544.64453,-170.61168 c 0.26164,-1.75416 1.91986,-7.19165 3.12276,-10.23996 3.73972,-9.47682 10.239,-20.49011 18.02061,-30.53665 2.53273,-3.26991 3.40172,-4.24864 3.77222,-4.24864 0.52878,0 4.3305,1.49666 6.91617,2.72274 1.41859,0.67269 3.47221,1.81864 4.56359,2.54659 7.30791,4.87433 9.07122,9.67071 6.53048,17.76363 -0.87274,2.7799 -3.91695,8.88367 -4.43067,8.88367 -0.0911,0 -0.22789,-0.5498 -0.30397,-1.22175 -0.24285,-2.14448 -1.14261,-5.41602 -1.98139,-7.20435 -1.04783,-2.234 -2.63616,-3.94276 -4.40001,-4.73363 -1.14023,-0.51125 -1.43975,-0.55788 -3.05171,-0.475 -5.89627,0.30317 -12.40903,6.37156 -26.03251,24.25634 -1.45438,1.90929 -2.69563,3.47145 -2.75836,3.47145 -0.0627,0 -0.048,-0.443 0.0328,-0.98444 z M 458.43086,32.199742 c 8.54678,-5.757338 17.01811,-13.49899 24.11402,-22.036877 1.23157,-1.4818428 5.01402,-6.2848823 8.40545,-10.67341756 C 505.93729,-19.903781 511.5397,-26.62203 518.60688,-33.67552 c 3.93371,-3.926077 6.93199,-6.548834 10.48396,-9.170887 1.36908,-1.010659 2.51848,-1.966047 2.5542,-2.123085 0.0819,-0.359782 -1.1924,-1.170297 -3.59138,-2.284336 -3.38997,-1.574258 -7.12686,-2.582426 -9.57197,-2.582426 h -1.13432 l -0.40089,0.905476 c -1.17264,2.648607 -2.18962,8.417202 -2.40877,13.663493 -0.12015,2.876018 -0.17688,3.258274 -0.46696,3.146088 -0.99581,-0.385154 -3.94001,-0.954534 -5.96729,-1.154059 -2.68656,-0.264391 -5.71453,-0.02029 -8.18287,0.65968 -2.37531,0.654315 -2.31913,0.582768 -2.94147,3.746746 -0.95516,4.85632 -1.23573,7.230236 -1.30634,11.05283 l -0.0689,3.730515 -1.40716,-0.06619 c -0.77394,-0.03635 -3.50745,-0.195851 -6.07447,-0.354401 -3.6516,-0.225554 -4.72164,-0.2337 -4.91692,-0.03752 -0.13728,0.137941 -0.86038,1.789629 -1.60688,3.670428 -1.33734,3.3693619 -1.35728,3.4485937 -1.3553,5.3885244 0.002,2.2017287 0.5498,5.22243174 1.22188,6.740401 0.24154,0.5455678 0.40176,1.0293324 0.35602,1.0750072 -0.0457,0.045667 -1.42372,0.2306301 -3.06219,0.410956 -1.63848,0.1803337 -3.09368,0.4180448 -3.2338,0.5282409 -0.14011,0.1102196 -1.12786,1.8927206 -2.19497,3.961122 -4.67245,9.0565795 -10.29246,17.6165315 -15.5998,23.7604265 -1.03391,1.196874 -1.95188,2.29271 -2.03991,2.435194 -0.39514,0.639518 0.69252,0.152518 2.74047,-1.227032 z m 32.87118,-50.816583 c 0.39685,-0.165655 0.77452,-0.472924 0.8393,-0.682804 0.37868,-1.22682 0.80287,-6.215787 0.8871,-10.433278 0.0979,-4.902786 -0.0294,-6.631341 -0.50006,-6.788089 -0.30472,-0.101486 -1.35176,2.087679 -4.28739,8.964219 -3.20464,7.50669 -3.53368,8.380692 -3.25855,8.655563 0.70568,0.70505 4.86367,0.892175 6.3196,0.284389 z m 18.28592,-18.573878 c 0.48321,-0.400679 1.56504,-2.607076 2.49122,-5.08088 1.62463,-4.339398 2.38626,-8.720037 2.0001,-11.504126 -0.11746,-0.846758 -0.1756,-1.577485 -0.12919,-1.623826 0.0464,-0.04637 0.62496,0.274276 1.28574,0.712507 3.54011,2.347738 9.80049,3.138811 15.36292,1.941278 1.29038,-0.277801 1.45566,-0.518481 2.13962,-3.115397 0.69213,-2.62792 0.78351,-6.235636 0.21487,-8.482303 -0.24073,-0.951174 -0.40032,-1.766788 -0.3546,-1.812471 0.0457,-0.04567 0.47592,0.164684 0.95601,0.46748 1.67745,1.057994 4.91866,2.262286 8.39722,3.120074 4.63931,1.144025 12.54975,2.245359 12.98732,1.808186 0.23734,-0.23714 5.14744,-19.548316 5.15746,-20.284103 0.007,-0.528171 -2.42987,-2.919758 -4.3811,-4.299348 -3.03509,-2.145941 -7.05367,-3.59682 -11.26039,-4.065474 -2.31297,-0.257678 -2.64862,-0.196431 -5.81947,1.061894 -13.09808,5.197852 -24.61624,15.515827 -35.00869,31.360816 -3.73761,5.698567 -9.36836,15.74518 -9.23446,16.476447 0.13612,0.743346 5.23372,2.853819 8.28311,3.429293 1.97558,0.372825 6.41521,0.302154 6.91231,-0.110047 z m 27.54052,-10.808899 c 4.4559,-2.472237 9.89362,-4.563002 16.07679,-6.181384 1.21858,-0.318956 1.12433,-0.734142 -0.31116,-1.370589 -4.25602,-1.887042 -8.91186,-3.007606 -13.08337,-3.148931 -1.63398,-0.0553 -3.05168,-0.01864 -3.15042,0.08137 -0.24268,0.246007 -2.122,11.229349 -1.96487,11.483353 0.20345,0.328904 0.42526,0.25015 2.43303,-0.863819 z m 25.98186,-7.94026 c 1.25499,-0.170401 3.23857,-0.372738 4.40797,-0.449652 1.38211,-0.09088 2.20741,-0.237593 2.3583,-0.419266 0.44113,-0.531038 -1.00389,-7.202672 -2.4849,-11.472786 -1.81212,-5.224751 -2.04225,-5.399405 -4.03112,-3.059313 -2.10015,2.470968 -3.6499,5.397658 -4.50263,8.503131 -0.47117,1.715873 -0.81981,5.128419 -0.66943,6.552611 l 0.0959,0.908499 1.27204,-0.126693 c 0.69962,-0.06972 2.29884,-0.26613 3.55383,-0.436531 z"
       id="path4739"
       inkscape:connector-curvature="0"
       sodipodi:nodetypes="cccccscccccccccccscccscsccscccccsccccccscssssssssccccsscccccsscccccccscssccssccscsccsccscccccccccccccsscscccssscscscssccccsscscsccccscccccscsccccccccccccccscccccscccscccccscccsccccsccccccccccccccccscccccccsccscccscccccscssccccsccccccccccsccccccccs" />
    <path
       style="fill:#6c177a;stroke:none;stroke-width:0.20734338;enable-background:new;fill-opacity:1"
       d="m 570.48276,-264.98371 c -6.98008,0.003 -13.91574,0.25804 -20.85582,0.76098 -45.89231,3.32581 -98.96851,17.59784 -151.00369,40.60458 -9.00565,3.98173 -23.54678,10.99089 -23.86323,11.50243 -0.10743,0.17368 35.03507,61.08484 35.85077,62.13882 0.16335,0.21106 0.40116,0.0479 1.05581,-0.72418 0.46477,-0.54821 1.96531,-2.25495 3.33438,-3.79285 6.66739,-7.48961 14.38188,-14.84774 24.44907,-23.31977 l 0.98493,-0.829 0.90268,-3.55037 c 3.29622,-12.96665 8.10854,-21.80173 13.73572,-25.21702 1.5189,-0.92183 6.90907,-2.76864 11.28583,-3.86652 7.84903,-1.96888 14.22249,-2.19598 17.75887,-0.63308 0.56677,0.2505 1.66228,1.09409 2.58324,1.98952 l 1.5991,1.5548 0.68875,-0.3028 c 0.37886,-0.16652 2.18231,-0.9702 4.00775,-1.78592 13.91719,-6.21908 29.54506,-11.60391 44.88638,-15.4669 l 3.19175,-0.8039 0.52629,-0.82901 c 6.00223,-9.45354 9.51988,-13.22693 14.5748,-15.63488 2.82302,-1.34475 3.95015,-1.56949 7.76388,-1.54873 3.00508,0.0164 3.54458,0.0778 5.70449,0.64928 4.38505,1.16023 8.5302,3.04255 14.55534,6.60935 1.86332,1.10305 6.00157,3.3762 9.19608,5.05174 6.01168,3.15316 7.83627,4.19766 9.95774,5.70062 l 1.24542,0.88244 2.79958,0.1429 c 21.02194,1.07441 42.31779,4.11708 60.46678,8.63896 7.42658,1.85036 18.1711,5.11657 18.77296,5.70667 0.27565,0.2703 0.21652,0.37818 -0.5186,0.94721 -1.38915,1.07532 -3.69816,3.55666 -4.8071,5.16549 -1.03521,1.50189 -2.45691,3.90131 -2.31743,3.91145 0.0394,0.003 15.94056,3.76651 35.33583,8.36371 32.41023,7.68208 35.29133,8.33155 35.6012,8.0257 0.37873,-0.37382 15.54791,-26.46327 15.68004,-26.96812 0.064,-0.24447 -1.82567,-1.26429 -7.75858,-4.1867 -38.65922,-19.04249 -82.37764,-34.10028 -122.02139,-42.02821 -23.06836,-4.61319 -44.4094,-6.86831 -65.34962,-6.85869 z"
       id="path872" />
    <path
       style="fill:#ea6505;stroke:none;stroke-width:0.20734338;enable-background:new"
       d="m 478.84022,-112.62358 c -0.008,0.0593 -0.017,0.12418 -0.0251,0.18538 0.008,-0.0618 0.0174,-0.12348 0.0251,-0.18538 z"
       id="path868" />
    <path
       style="fill:#00b956;stroke:none;stroke-width:0.78366005;enable-background:new;fill-opacity:1"
       d="M 1584.6016 1231.5898 C 1577.8142 1231.6485 1569.9967 1232.4067 1562.4668 1233.8535 C 1509.8645 1243.9612 1489.9355 1256.5321 1483.4414 1283.6973 C 1480.5439 1295.8179 1480.1138 1309.4573 1480.4707 1378.1035 C 1480.832 1447.6271 1480.9398 1449.5769 1484.9238 1460.0527 C 1490.8942 1475.7517 1503.1025 1479.4956 1532.75 1474.7109 C 1545.2229 1472.6981 1567.6608 1467.1496 1578.2031 1463.4727 C 1605.6601 1453.8962 1615.2924 1441.6555 1618.2559 1412.5684 C 1618.8591 1406.6467 1619.04 1381.7813 1618.8359 1333.0625 C 1618.5154 1256.553 1618.6397 1258.9122 1614.2793 1247.3359 C 1611.9745 1241.2174 1606.7904 1236.0002 1600.5547 1233.5254 C 1597.1471 1232.1732 1591.3889 1231.5312 1584.6016 1231.5898 z M 1555.7227 1274.5352 L 1555.7246 1274.5352 C 1559.819 1274.4647 1561.8946 1275.7224 1563.5527 1279.0254 C 1564.8269 1281.5636 1564.9247 1286.6474 1564.9258 1351.1094 L 1564.9258 1420.4609 L 1563.1621 1423.9492 C 1560.288 1429.6335 1555.1163 1432.2655 1545.1953 1433.0918 C 1540.3707 1433.4936 1539.8191 1433.3758 1538.0098 1431.5684 C 1536.9315 1430.491 1535.6674 1428.2429 1535.2031 1426.5723 C 1534.0144 1422.2945 1534.0231 1293.1488 1535.2109 1287.6074 C 1536.8112 1280.1524 1543.3271 1275.6198 1553.8398 1274.6465 C 1554.5117 1274.5846 1555.1377 1274.5452 1555.7227 1274.5352 z "
       transform="matrix(0.26458333,0,0,0.26458333,321.33219,-299.74599)"
       id="path866" />
    <path
       style="fill:#00b956;stroke:none;stroke-width:0.78366005;enable-background:new;fill-opacity:1"
       d="M 1429.3906 1270.5293 C 1414.567 1270.4784 1390.7004 1275.2203 1329.9199 1289.5938 L 1328.1562 1290.0117 L 1328.1562 1404.3594 L 1328.1562 1518.707 L 1329.9199 1518.6641 C 1330.8901 1518.6414 1342.6209 1516.0856 1355.9883 1512.9844 L 1380.293 1507.3438 L 1380.6855 1467.3984 L 1381.0762 1427.4512 L 1387.7402 1425.6973 C 1392.3895 1424.4737 1396.1481 1424.0065 1400.168 1424.1504 C 1405.6818 1424.3479 1406.0425 1424.4794 1408.5391 1427.2012 C 1409.974 1428.7655 1411.5241 1431.4003 1411.9844 1433.0566 C 1412.5134 1434.96 1412.8215 1447.6523 1412.8242 1467.5508 C 1412.8242 1484.8658 1413.0948 1499.1851 1413.418 1499.3711 C 1414.053 1499.7363 1463.2668 1488.5744 1464.5703 1487.7695 C 1465.6838 1487.082 1465.6224 1426.425 1464.502 1420.3496 C 1461.8574 1406.009 1452.9496 1398.6013 1436.9219 1397.4121 C 1433.1402 1397.1317 1429.9986 1396.55 1429.9395 1396.1191 C 1429.8805 1395.6883 1432.4446 1393.9184 1435.6387 1392.1855 C 1451.5884 1383.5326 1459.5484 1374.4694 1463.5391 1360.416 C 1464.8015 1355.9703 1464.962 1352.2076 1464.9258 1327.9707 C 1464.8872 1302.2011 1464.7806 1300.1822 1463.1602 1294.3555 C 1459.024 1279.4811 1451.7263 1273.0029 1436.873 1271.0195 C 1434.5712 1270.7122 1432.1357 1270.5387 1429.3906 1270.5293 z M 1402.5898 1312.6973 L 1402.5918 1312.6973 C 1408.0636 1312.6973 1410.8134 1314.4779 1412.0156 1318.8027 C 1413.127 1322.801 1413.0822 1370.0936 1411.9629 1374.1855 C 1410.8138 1378.3887 1407.8916 1382.1002 1404.2754 1383.9434 C 1400.7217 1385.7548 1386.4892 1389.4609 1383.0898 1389.4609 L 1380.6836 1389.4609 L 1380.6836 1353.457 C 1380.6836 1319.9606 1380.7802 1317.4014 1382.0566 1316.7383 C 1384.7695 1315.3289 1398.1439 1312.6973 1402.5898 1312.6973 z "
       transform="matrix(0.26458333,0,0,0.26458333,321.33219,-299.74599)"
       id="path864" />
    <path
       style="fill:#00b956;stroke:none;stroke-width:0.78366005;enable-background:new;fill-opacity:1"
       d="M 1280.0312 1304.9023 C 1274.3961 1304.8553 1268.3643 1305.1093 1264.4102 1305.6875 C 1253.6021 1307.2677 1200.1976 1318.8005 1184.4863 1322.9473 L 1181.5469 1323.7246 L 1181.5469 1438.0566 C 1181.5469 1546.4363 1181.6174 1552.3882 1182.918 1552.3555 C 1183.6726 1552.3366 1195.4033 1549.7573 1208.9863 1546.625 L 1233.6836 1540.9297 L 1233.8887 1507.7207 C 1234.0013 1489.4555 1234.3681 1474.235 1234.7051 1473.8984 C 1235.0418 1473.5619 1240.947 1471.892 1247.8281 1470.1855 C 1269.5617 1464.796 1281.155 1460.3344 1291.7852 1453.2676 C 1305.8831 1443.8955 1313.213 1431.2394 1315.5996 1412.1504 C 1317.0464 1400.5783 1316.276 1335.7799 1314.6172 1329.5312 C 1310.9961 1315.8913 1304.7572 1308.9941 1293.2676 1305.9277 C 1290.9042 1305.2969 1285.6663 1304.9493 1280.0312 1304.9023 z M 1254.6992 1346.3789 C 1256.5316 1346.3789 1258.8516 1346.9537 1259.8555 1347.6562 C 1263.7148 1350.357 1263.8676 1351.8263 1263.8594 1386.1074 L 1263.8516 1418.0508 L 1261.9707 1422.0898 C 1259.562 1427.2583 1255.718 1429.5877 1245.3262 1432.1719 C 1237.1583 1434.2031 1235.4423 1434.4286 1234.5996 1433.5879 C 1234.312 1433.3007 1234.0742 1414.6615 1234.0742 1392.168 C 1234.0742 1360.3888 1234.2932 1351.0971 1235.0547 1350.4902 C 1236.46 1349.3704 1250.7529 1346.3789 1254.6992 1346.3789 z "
       transform="matrix(0.26458333,0,0,0.26458333,321.33219,-299.74599)"
       id="path860" />
    <path
       style="fill:#00b956;stroke:none;stroke-width:0.20734338;enable-background:new;fill-opacity:1"
       d="m 603.44562,57.355299 c -0.64656,0.0023 -1.3402,0.04292 -2.08367,0.120637 -2.42595,0.253425 -9.74196,1.812534 -12.52961,2.669969 -0.91272,0.280746 -2.54627,0.943763 -3.63013,1.473829 -2.63572,1.289031 -4.77806,3.353046 -5.88845,5.672679 -1.46866,3.06814 -1.66426,4.519559 -1.67406,12.403076 -0.009,7.330422 0.0978,8.44736 0.9922,10.353632 0.58698,1.250985 1.82025,2.436228 3.14355,3.02093 1.86591,0.824465 4.07145,1.158735 8.82009,1.336202 4.95652,0.185269 6.03598,0.378629 7.12697,1.277101 1.16929,0.962994 1.37806,1.994418 1.37669,6.795566 0,2.23058 -0.0973,4.40236 -0.21514,4.82628 -0.46851,1.68546 -2.10095,2.81005 -4.77144,3.28685 -1.25403,0.22391 -1.47325,0.20943 -2.19024,-0.14288 -1.43246,-0.70391 -1.62341,-1.32004 -1.71134,-5.52736 -0.0688,-3.29249 -0.11295,-3.67526 -0.41649,-3.59006 -0.18685,0.0525 -2.67356,0.62184 -5.52581,1.26537 -2.85224,0.64353 -5.53594,1.26025 -5.96378,1.3702 l -0.77789,0.19995 v 4.19402 c 0,5.75535 0.35427,8.36578 1.41317,10.42001 0.50311,0.97605 1.54583,2.0659 2.41183,2.52021 1.78441,0.93611 4.9553,1.11093 8.65237,0.47682 12.35638,-2.11926 17.97467,-4.91785 20.61839,-10.26984 1.49045,-3.01728 1.61229,-3.88887 1.70406,-12.20473 0.0858,-7.772671 -0.01,-9.108983 -0.80016,-11.22027 -0.52704,-1.407382 -2.01674,-3.075684 -3.34856,-3.749958 -1.9707,-0.997749 -3.8627,-1.330797 -8.66288,-1.524823 -4.94444,-0.199877 -6.18462,-0.448202 -7.35427,-1.474245 -1.09205,-0.957949 -1.25432,-1.693258 -1.25432,-5.68037 0,-4.807223 0.36303,-5.725717 2.66466,-6.742923 0.56636,-0.250323 1.64463,-0.48928 2.48679,-0.551333 2.59317,-0.191128 3.03916,0.55228 3.04105,5.06631 0,1.668537 0.0817,2.746074 0.20621,2.746074 0.3869,0 11.83003,-2.672004 12.06532,-2.817309 0.31628,-0.195271 0.0472,-7.712669 -0.35043,-9.7926 -0.83108,-4.346817 -3.04875,-6.222336 -7.57468,-6.207014 z"
       id="path854" />
    <path
       style="fill:#00b956;stroke:none;stroke-width:0.20734338;enable-background:new;fill-opacity:1"
       d="m 572.71228,64.453633 c -0.14699,0.04833 -3.0211,0.710894 -6.38675,1.472232 -3.36564,0.761315 -6.23463,1.476368 -6.37542,1.58918 -0.19984,0.160117 -0.26808,5.574428 -0.31115,24.689981 -0.0547,24.276264 -0.0585,24.490804 -0.48092,25.209304 -0.75747,1.28831 -2.18876,1.99581 -4.44892,2.19881 -1.42625,0.12808 -2.04509,-0.17442 -2.59295,-1.26699 -0.40672,-0.81109 -0.41589,-1.30114 -0.47242,-24.920296 -0.0317,-13.251096 -0.10423,-24.09291 -0.16124,-24.09291 -0.14636,0 -11.85286,2.671362 -12.80552,2.922155 l -0.78599,0.206856 0.0697,24.704527 c 0.0685,24.236378 0.0784,24.739908 0.50562,26.569818 0.96543,4.13515 2.46665,6.03427 5.40995,6.84372 1.36168,0.37449 5.36432,0.3672 7.71565,-0.0137 4.45075,-0.72115 9.80934,-2.28567 12.54179,-3.6621 4.89992,-2.46826 7.14312,-5.57663 8.34322,-11.56153 0.31808,-1.5863 0.36058,-4.21074 0.42783,-26.369031 0.0607,-20.010336 0.0249,-24.591409 -0.19246,-24.519971 z"
       id="path852" />
    <path
       style="fill:#00b956;stroke:none;stroke-width:0.20734338;enable-background:new;fill-opacity:1"
       d="m 536.04716,72.84649 -0.47038,0.110917 c -0.2587,0.06102 -7.61135,1.742051 -16.33921,3.735364 -8.72788,1.993321 -15.98554,3.668093 -16.12815,3.721625 -0.19777,0.07426 -0.2593,1.307008 -0.2593,5.195431 0,4.75684 0.0243,5.090992 0.36301,4.993854 0.19967,-0.05726 2.27249,-0.537445 4.60612,-1.06701 4.00916,-0.909768 4.25779,-0.942432 4.51174,-0.595457 0.2165,0.29581 0.26862,5.175324 0.26862,25.093956 0,23.41535 0.0193,24.72612 0.36302,24.71589 0.19965,-0.006 3.25674,-0.6821 6.79353,-1.50257 l 6.43051,-1.49165 0.10372,-25.11176 c 0.0571,-13.811544 0.17319,-25.181575 0.25807,-25.266384 0.0849,-0.0848 2.23187,-0.629939 4.77103,-1.211523 l 4.61668,-1.057312 0.0555,-5.131881 z"
       id="path850" />
    <path
       style="fill:#00b956;stroke:none;stroke-width:0.78366005;enable-background:new;fill-opacity:1"
       d="M 646.16016 1449.9316 C 638.18297 1449.8227 628.57175 1450.829 617.45117 1452.9473 C 603.79804 1455.5481 546.14932 1468.8137 545.12695 1469.5898 C 544.35086 1470.1791 544.14648 1494.0275 544.14648 1584.209 L 544.14648 1698.0859 L 545.91016 1698.043 C 546.8804 1698.0203 558.61112 1695.4624 571.97852 1692.3613 L 596.2832 1686.7246 L 596.69336 1646.7773 C 596.919 1624.8066 597.1834 1606.7711 597.28125 1606.6992 C 597.37952 1606.6274 600.58958 1605.835 604.41602 1604.9375 C 618.12954 1601.7209 624.23105 1603.1058 627.5 1610.1797 C 629.14734 1613.7446 629.22484 1615.0655 629.60352 1646.459 L 629.99609 1679.043 L 649.5957 1674.5586 C 660.37586 1672.0923 671.94824 1669.4623 675.31055 1668.7168 L 681.42383 1667.3613 L 681.18945 1632.3945 C 680.97326 1599.953 680.84869 1597.1747 679.45117 1593.9043 C 676.99183 1588.1493 673.81196 1584.0764 669.81836 1581.5645 C 664.73482 1578.3669 660.99571 1577.2815 653.18555 1576.7383 C 649.31104 1576.4688 646.46273 1575.9102 646.28906 1575.3848 C 646.12654 1574.8924 649.09704 1572.8402 652.89062 1570.8242 C 665.55295 1564.0953 672.34652 1557.5686 676.7793 1547.873 C 680.81515 1539.0455 681.3504 1534.3274 681.32031 1507.8867 C 681.29008 1482.2866 680.69576 1476.156 677.38281 1467.4062 C 674.82468 1460.6498 668.55127 1454.5512 661.74805 1452.209 C 657.58127 1450.7744 652.36467 1450.0165 646.16016 1449.9316 z M 618.77734 1491.832 C 623.4869 1491.7607 626.02922 1493.1291 627.80469 1496.6914 C 629.07306 1499.2364 629.21094 1502.0696 629.21094 1525.3652 C 629.21094 1553.1227 628.99879 1554.8942 625.125 1559.4941 C 622.38613 1562.7461 618.6368 1564.4957 609.38867 1566.8379 C 601.37263 1568.868 598.14316 1569.2595 597.19922 1568.3164 C 596.9116 1568.0292 596.67578 1552.0167 596.67578 1532.7324 C 596.67578 1503.9757 596.86903 1497.4758 597.75586 1496.5898 C 599.11218 1495.2347 613.8152 1491.9068 618.77734 1491.832 z "
       transform="matrix(0.26458333,0,0,0.26458333,321.33219,-299.74599)"
       id="path848" />
    <path
       style="fill:#00b956;stroke:none;stroke-width:0.20734338;enable-background:new;fill-opacity:1"
       d="m 459.70344,90.472531 -0.46673,0.01097 c -0.2567,0.0063 -3.36046,0.682106 -6.89725,1.502569 l -6.43051,1.49165 -0.0523,30.31043 c -0.0289,16.67074 0.005,30.31044 0.0774,30.31044 0.0717,0 3.03578,-0.65909 6.58689,-1.46452 3.55112,-0.80544 6.61981,-1.51098 6.81947,-1.56814 0.3436,-0.0984 0.36301,-1.7218 0.36301,-30.34849 z"
       id="path846" />
    <path
       style="fill:#00b956;stroke:none;stroke-width:0.20734338;enable-background:new;fill-opacity:1"
       d="m 442.94365,94.226115 c -0.9093,0.07933 -13.79037,3.058897 -13.96181,3.237899 -0.0835,0.08721 -1.32985,12.096326 -2.76961,26.686776 -1.43972,14.59047 -2.66727,26.69133 -2.72786,26.8908 -0.13214,0.43502 -0.41033,0.47254 -0.56273,0.0757 -0.0607,-0.15794 -1.251,-11.65262 -2.64481,-25.54366 -1.39378,-13.89109 -2.60305,-25.33408 -2.68735,-25.42873 -0.12911,-0.144935 -13.8493,2.85629 -14.07122,3.078 -0.0689,0.0689 8.14765,57.00493 8.38131,58.0776 0.0558,0.25648 0.22745,0.46632 0.38124,0.46632 0.15377,0 5.15917,-1.11657 11.12295,-2.48133 5.96377,-1.36477 10.89661,-2.53495 10.9621,-2.60036 0.14462,-0.14452 8.73687,-62.345703 8.62764,-62.457387 -0.004,-0.0039 -0.0205,-0.0039 -0.0499,-0.0023 z"
       id="path844" />
    <path
       style="fill:#00b956;stroke:none;stroke-width:0.20734338;enable-background:new;fill-opacity:1"
       d="m 628.77023,100.42057 -0.46996,0.0122 c -0.25844,0.006 -2.99032,0.5939 -6.07074,1.30504 l -5.60077,1.2929 -0.0551,5.94874 -0.0546,5.94874 0.46955,-0.008 c 0.25844,-0.005 2.99033,-0.59217 6.07076,-1.30585 l 5.60077,-1.29734 0.0551,-5.94835 z"
       id="path840" />
    <path
       style="fill:#00b956;stroke:none;stroke-width:0.20734338;enable-background:new;fill-opacity:1"
       d="m 589.90841,146.49422 c -0.58086,0.14087 -1.32475,0.31972 -1.33863,0.32748 -0.0135,0.008 -0.0607,0.0739 -0.12315,0.16636 0.48148,-0.18019 0.96908,-0.34375 1.46178,-0.49384 z"
       id="path4706-5" />
  </g>
</svg>
